<?xml version="1.0" encoding="utf-8"?>
<!-- Generator: Adobe Illustrator 24.3.0, SVG Export Plug-In . SVG Version: 6.00 Build 0)  -->
<svg version="1.1" id="Layer_1" xmlns="http://www.w3.org/2000/svg" xmlns:xlink="http://www.w3.org/1999/xlink" x="0px" y="0px"
	 viewBox="0 0 323.9 163.4" style="enable-background:new 0 0 323.9 163.4;" xml:space="preserve">
<style type="text/css">
	.st0{fill:#FFFFFF;}
</style>
<g>
	<g id="Layer_1-2">
		<path class="st0" d="M218.4,73.4V79c0.1,6.6,5.5,12,12.1,12.1h6.1c6.6-0.1,12.1,5.2,12.2,11.8c0,0.1,0,0.2,0,0.3v6.1
			c0.1,6.7,5.5,12,12.1,12.1h6.1c6.7,0,12.1-5.4,12.1-12.1v-6.1c0.1-6.6-5.2-12.1-11.8-12.1c-0.1,0-0.2,0-0.3,0h-6.1
			c-6.6-0.1-12-5.4-12.1-12.1v-5.6c-0.2-6.8,5.2-12.5,11.9-12.6c0.1,0,0.1,0,0.2,0h6.1c6.7,0,12.1-5.4,12.1-12.1v-6.1
			c0.1-6.6-5.2-12.1-11.9-12.1c-0.1,0-0.2,0-0.3,0h-6.1c-6.7-0.1-12-5.5-12.1-12.1v-6.1c0.1-6.6-5.2-12.1-11.9-12.1
			c-0.1,0-0.2,0-0.3,0h-6.1c-6.7,0-12.1,5.4-12.1,12.1L218.4,73.4L218.4,73.4z M187.4,0h-6.1c-6.7,0-12.1,5.4-12.1,12.1v6.1
			c0.1,6.7,5.5,12,12.1,12.1h6.1c6.7,0,12.1-5.4,12.1-12.1v-6.1C199.6,5.5,194.3,0,187.6,0C187.6,0,187.5,0,187.4,0 M157,79
			c6.6-0.1,12.1,5.2,12.1,11.9l0,0v18.5c0.1,6.7,5.5,12,12.1,12.1h6.1c6.7,0,12.1-5.4,12.1-12.1V60.7c0.1-6.6-5.2-12.1-11.9-12.1
			c-0.1,0-0.2,0-0.3,0H157c-6.7,0-12.1,5.4-12.1,12.1v6.1C144.9,73.5,150.3,78.9,157,79 M100.3,42.6c-0.1-6.6,5.2-12.1,11.9-12.1
			c0.1,0,0.2,0,0.3,0h6.1c6.7,0,12.1,5.4,12.1,12.1v66.8c-0.1,6.7-5.5,12-12.1,12.1H91.1c-6.7-0.1-12-5.5-12.1-12.2v-9.2
			c0-5-4.1-9.1-9.1-9.1s-9.1,4.1-9.1,9.1v9.2c0,6.7-5.4,12.1-12.2,12.1h-6.1c-6.7-0.1-12-5.5-12.1-12.1v-6.1
			c0.1-6.6-5.2-12.1-11.8-12.2c-0.1,0-0.2,0-0.3,0h-6.1C5.6,91.1,0.2,85.5,0,79V42.5c0-6.7,5.5-12.1,12.1-12.1h6.1
			c6.6-0.1,12.1,5.2,12.1,11.8c0,0.1,0,0.2,0,0.3v37.9c-0.2,5.9,4.5,10.8,10.4,11s10.8-4.5,11-10.4c0-0.2,0-0.4,0-0.7V42.5
			c-0.1-6.6,5.2-12.1,11.9-12.1c0.1,0,0.2,0,0.3,0H70c6.7,0,12.1,5.5,12.1,12.1v39.4c-0.2,4.9,3.6,9,8.5,9.2c0.2,0,0.3,0,0.5,0
			c5,0.1,9.1-3.9,9.2-8.9c0-0.1,0-0.2,0-0.3L100.3,42.6z"/>
		<path class="st0" d="M318.1,151.1c0-0.9-0.1-4.3-3.3-4.3c-2.5,0-3.5,2-3.6,4.3H318.1z M311.1,154.6c0,1.2,0,5.1,3.9,5.1
			c1.6,0.1,3.1-1,3.3-2.6h5.1c-0.1,1.6-0.7,3-1.8,4.1c-1.4,1.5-3.9,2.2-6.6,2.2c-1.6,0-4.7-0.3-6.7-2.4c-1.7-1.8-2.4-4.4-2.4-7.4
			s0.7-6.8,3.9-9c1.6-1,3.4-1.6,5.4-1.6c3.2-0.1,6.2,1.7,7.6,4.6c1,2.2,1.4,4.6,1.1,6.9L311.1,154.6z M293.3,148.4
			c0-0.9-0.2-3.7-0.3-4.8h5.2l0.1,3.6c0.7-1.6,2-3.9,6.5-3.7v5c-5.6-0.5-6,2.4-6,4.7v9.4h-5.5L293.3,148.4L293.3,148.4z
			 M277.5,156.8c-0.1,1.4,1.1,2.7,2.5,2.7c0.1,0,0.1,0,0.2,0c0.9,0,1.8-0.4,2.4-1.1c1-1.2,1-2.7,1-4.7
			C280.1,153.5,277.5,154.6,277.5,156.8 M284.4,162.7c-0.1-0.9-0.2-1.7-0.2-2.6c-1.2,2-3.4,3.1-5.7,3c-2.8,0-4-0.8-4.7-1.5
			c-1.1-1.1-1.7-2.6-1.6-4.2c0-2.6,1.6-4.9,4-5.9c2.3-1.1,5.7-1.1,7.5-1.1c0.1-0.8,0-1.7-0.3-2.5c-0.4-1-1.4-1.6-2.5-1.6
			c-0.8,0-1.6,0.4-2.1,1.1c-0.3,0.5-0.5,1.1-0.4,1.7h-5.5c-0.1-1.8,0.7-3.4,2.1-4.5c1.7-1.1,3.7-1.6,5.8-1.5c1.6,0,4.9,0.3,6.8,2.4
			c0.9,1.4,1.4,3,1.3,4.7v7.6c0,1.6,0.1,3.2,0.5,4.8L284.4,162.7z M244.5,143.7L248,158l4-14.3h6.1l4,14.3l3.7-14.3h5.5l-6.5,19h-6
			l-3.9-14.1l-4,14.1h-6.1l-6.2-19H244.5z M235.7,162.4c-1.4,0.4-2.9,0.6-4.3,0.6c-5.6,0-5.6-3.5-5.6-5.1v-10.4h-3.6v-3.7h3.6v-3.7
			l5.5-2v5.8h4.5v3.7h-4.5v8.6c0.1,1.7,0.1,2.8,2.5,2.8c0.6,0,1.3,0,1.9-0.1L235.7,162.4L235.7,162.4z M210.7,147.7h-2.8v-4h2.8
			v-2.6c0-3.3,1.1-6.1,6.5-6.1c1,0,2,0.1,3,0.2v3.9c-0.4-0.1-0.8-0.1-1.2-0.1c-2.9,0-2.9,1.5-2.9,2.5v2.2h3.5v4h-3.5v15h-5.5
			L210.7,147.7z M197,159.5c2.4,0,4.1-1.5,4.1-6.5c0-2.5-0.5-6-4.2-6c-4.1,0-4.1,4.7-4.1,6.4C192.8,157.7,194.3,159.5,197,159.5
			 M196.9,143.3c6.9,0,9.9,4.7,9.9,10s-3.1,10.1-10,10.1c-5.4,0-9.7-3.4-9.7-10C187.1,148.8,189.4,143.3,196.9,143.3 M173.6,157.3
			c0.1,1.2,0.8,2.6,3.1,2.6c2,0,2.9-1.1,2.9-2.3c0-0.9-0.4-1.5-2.6-2.1l-3.4-0.9c-1.5-0.4-4.8-1.4-4.8-5.3c0-3.7,3.4-5.9,8.3-5.9
			c3.9,0,7.1,1.8,7.2,5.6h-5.1c0-1.3-1.1-2.3-2.4-2.3c-0.1,0-0.2,0-0.3,0c-1.5,0-2.6,0.7-2.6,1.9s0.9,1.5,2.6,2l3.4,0.9
			c3.5,0.9,5.1,2.7,5.1,5.3c0,3.3-2.8,6.5-8.7,6.5c-2.4,0.2-4.8-0.7-6.5-2.3c-0.9-1-1.4-2.4-1.4-3.7H173.6z"/>
	</g>
</g>
</svg>
