<svg width="770" height="193" viewBox="0 0 770 193" fill="none" xmlns="http://www.w3.org/2000/svg">
<path fill-rule="evenodd" clip-rule="evenodd" d="M160.295 64.5972C177.913 64.5972 192.195 50.3154 192.195 32.6979C192.195 15.0804 177.913 0.798584 160.295 0.798584C142.678 0.798584 128.396 15.0804 128.396 32.6979C128.396 50.3154 142.678 64.5972 160.295 64.5972Z" fill="#05F2DB"/>
<path fill-rule="evenodd" clip-rule="evenodd" d="M32.6979 0.798584C50.3154 0.798584 64.5972 15.0804 64.5972 32.6979C64.5972 40.0375 62.1184 46.7982 57.9523 52.1884C47.2275 63.7979 40.6727 79.4451 40.6727 96.4965C40.6727 113.548 47.2275 129.195 57.9523 140.805C62.1184 146.195 64.5972 152.956 64.5972 160.295C64.5972 177.913 50.3154 192.194 32.6979 192.194C15.0804 192.194 0.798584 177.913 0.798584 160.295C0.798584 152.956 3.27739 146.195 7.4435 140.805C18.1683 129.195 24.7231 113.548 24.7231 96.4965C24.7231 79.4451 18.1702 63.7979 7.44537 52.1884C3.27738 46.7982 0.798584 40.0375 0.798584 32.6979C0.798584 15.0804 15.0804 0.798584 32.6979 0.798584ZM120.578 109.31L120.822 109.544C132.223 120.945 146.8 127.236 161.706 128.415L162.606 128.479C163.164 128.516 163.722 128.546 164.28 128.568L164.37 128.656C171.127 129.521 177.661 132.549 182.851 137.739C195.309 150.196 195.309 170.394 182.851 182.851C170.394 195.309 150.196 195.309 137.739 182.851C132.675 177.788 129.442 171.596 128.706 164.875L128.669 164.513L128.668 164.475C128.664 164.371 128.66 164.267 128.656 164.162C128.03 148.369 121.601 132.879 109.544 120.822L109.31 120.578C106.431 117.45 106.509 112.578 109.544 109.544C112.578 106.509 117.45 106.431 120.578 109.31Z" fill="#F7F6FB"/>
<path d="M270.22 90V74.3229L278.522 65.6429L298.307 90H315L287.885 55.6343L313.499 28H297.6L270.22 56.9629V28H256V90H270.22ZM339 90V28H324V90H339ZM370.206 90V52.3571L401.192 90H413V28H398.794V65.6429L367.897 28H356V90H370.206ZM477 90V78.4857H443.258V64.1371H472.041V52.9771H443.258V39.5143H475.849V28H429V90H477ZM519.17 90V39.6914H539V28H485V39.6914H504.83V90H519.17ZM563 90V28H548V90H563ZM594.22 90V74.3229L602.522 65.6429L622.307 90H639L611.885 55.6343L637.498 28H621.6L594.22 56.9629V28H580V90H594.22ZM676 91C682.451 91 688.251 89.6151 693.399 86.8453C698.548 84.0755 702.602 80.2597 705.561 75.3978C708.52 70.5359 710 65.07 710 59C710 52.93 708.52 47.4641 705.561 42.6022C702.602 37.7403 698.548 33.9245 693.399 31.1547C688.251 28.3849 682.451 27 676 27C669.549 27 663.735 28.3849 658.556 31.1547C653.378 33.9245 649.324 37.7403 646.394 42.6022C643.465 47.4641 642 52.93 642 59C642 65.07 643.465 70.5359 646.394 75.3978C649.324 80.2597 653.378 84.0755 658.556 86.8453C663.735 89.6151 669.549 91 676 91ZM676 78C672.414 78 669.175 77.173 666.283 75.519C663.391 73.8649 661.121 71.558 659.473 68.5982C657.824 65.6384 657 62.2723 657 58.5C657 54.7277 657.824 51.3616 659.473 48.4018C661.121 45.442 663.391 43.135 666.283 41.481C669.175 39.827 672.414 39 676 39C679.586 39 682.825 39.827 685.717 41.481C688.609 43.135 690.879 45.442 692.527 48.4018C694.176 51.3616 695 54.7277 695 58.5C695 62.2723 694.176 65.6384 692.527 68.5982C690.879 71.558 688.609 73.8649 685.717 75.519C682.825 77.173 679.586 78 676 78ZM743.974 91C749.582 91 754.344 90.1455 758.258 88.4365C762.172 86.7274 765.107 84.4144 767.064 81.4972C769.021 78.5801 770 75.3536 770 71.8177C770 67.6924 768.934 64.4217 766.802 62.0055C764.669 59.5893 762.113 57.8214 759.134 56.7017C756.155 55.582 752.328 54.4623 747.655 53.3425C743.156 52.3407 739.812 51.3241 737.621 50.2928C735.43 49.2615 734.335 47.6851 734.335 45.5635C734.335 43.442 735.284 41.733 737.183 40.4365C739.082 39.14 742.017 38.4917 745.99 38.4917C751.656 38.4917 757.323 40.1123 762.99 43.3536L767.371 32.4807C764.567 30.7127 761.296 29.3573 757.557 28.4144C753.818 27.4715 749.991 27 746.077 27C740.469 27 735.723 27.8545 731.838 29.5635C727.953 31.2726 725.046 33.5856 723.119 36.5028C721.191 39.4199 720.227 42.6759 720.227 46.2707C720.227 50.396 721.293 53.6961 723.425 56.1713C725.558 58.6464 728.113 60.4438 731.093 61.5635C734.072 62.6832 737.899 63.8029 742.572 64.9227C745.61 65.6298 748.02 66.2781 749.802 66.8674C751.583 67.4567 753.044 68.2376 754.183 69.2099C755.322 70.1823 755.892 71.4052 755.892 72.8784C755.892 74.8821 754.928 76.488 753 77.6961C751.072 78.9042 748.093 79.5083 744.062 79.5083C740.44 79.5083 736.818 78.919 733.196 77.7403C729.574 76.5617 726.448 75 723.82 73.0553L719 83.8398C721.746 85.9613 725.382 87.6851 729.91 89.011C734.437 90.337 739.125 91 743.974 91Z" fill="#F7F6FB"/>
<path d="M262.535 166V150.179C262.535 146.895 263.4 144.374 265.129 142.617C266.859 140.859 269.223 139.98 272.221 139.98C274.873 139.98 276.91 140.733 278.332 142.24C279.754 143.747 280.465 145.987 280.465 148.962V166H286V148.325C286 143.959 284.857 140.646 282.57 138.386C280.283 136.126 277.198 134.996 273.316 134.996C271.01 134.996 268.925 135.402 267.061 136.213C265.196 137.024 263.688 138.164 262.535 139.632V123H257V166H262.535ZM312.193 166C314.693 166 316.956 165.58 318.983 164.739C321.009 163.899 322.705 162.677 324.068 161.072L321.057 157.519C318.86 159.964 315.962 161.187 312.364 161.187C309.409 161.187 306.937 160.375 304.949 158.751C302.96 157.128 301.795 154.979 301.455 152.305H325.886C325.962 151.617 326 151.063 326 150.643C326 147.587 325.366 144.875 324.097 142.506C322.828 140.138 321.066 138.295 318.812 136.977C316.559 135.659 313.992 135 311.114 135C308.235 135 305.65 135.659 303.358 136.977C301.066 138.295 299.267 140.138 297.96 142.506C296.653 144.875 296 147.53 296 150.471C296 153.451 296.672 156.125 298.017 158.494C299.362 160.862 301.265 162.705 303.727 164.023C306.189 165.341 309.011 166 312.193 166ZM321 148H301C301.314 145.316 302.382 143.145 304.206 141.487C306.029 139.829 308.294 139 311 139C313.706 139 315.971 139.839 317.794 141.516C319.618 143.194 320.686 145.355 321 148ZM343.054 166C345.348 166 347.331 165.628 349.004 164.883C350.678 164.138 351.965 163.059 352.868 161.645V165.656H358V147.32C358 143.232 356.9 140.157 354.701 138.094C352.501 136.031 349.333 135 345.197 135C342.791 135 340.516 135.334 338.373 136.003C336.23 136.671 334.388 137.636 332.846 138.896L335.102 143.022C336.268 142.029 337.696 141.236 339.388 140.644C341.08 140.052 342.81 139.756 344.577 139.756C347.209 139.756 349.202 140.386 350.555 141.647C351.909 142.908 352.586 144.722 352.586 147.091V148.179H344.013C339.839 148.179 336.794 148.991 334.876 150.615C332.959 152.238 332 154.387 332 157.061C332 159.735 333.006 161.893 335.017 163.536C337.029 165.179 339.708 166 343.054 166ZM343.933 162C341.76 162 340.062 161.544 338.837 160.631C337.612 159.718 337 158.468 337 156.881C337 153.627 339.41 152 344.23 152H353V156.405C352.289 158.19 351.143 159.569 349.563 160.542C347.983 161.514 346.106 162 343.933 162ZM377 166V123H371V166H377ZM399.487 166C400.722 166 401.92 165.82 403.08 165.461C404.241 165.101 405.214 164.581 406 163.9L404.316 159.985C403.155 160.93 401.751 161.403 400.104 161.403C398.607 161.403 397.456 160.968 396.651 160.098C395.846 159.228 395.444 157.98 395.444 156.353V140.066H403.979V135.583H395.444V129H390.053V135.583H385V140.066H390.053V156.58C390.053 159.606 390.877 161.933 392.524 163.56C394.171 165.187 396.492 166 399.487 166ZM420.535 166V150.179C420.535 146.895 421.4 144.374 423.129 142.617C424.859 140.859 427.223 139.98 430.221 139.98C432.873 139.98 434.91 140.733 436.332 142.24C437.754 143.747 438.465 145.987 438.465 148.962V166H444V148.325C444 143.959 442.857 140.646 440.57 138.386C438.283 136.126 435.198 134.996 431.316 134.996C429.01 134.996 426.925 135.402 425.061 136.213C423.196 137.024 421.688 138.164 420.535 139.632V123H415V166H420.535Z" fill="#F7F6FB"/>
</svg>
