<svg width="122" height="60" viewBox="0 0 122 60" fill="none" xmlns="http://www.w3.org/2000/svg">
<path d="M19.52 40.08C19.52 44.176 18.7093 47.6747 17.088 50.576C15.4667 53.4773 13.2053 55.696 10.304 57.232C7.44533 58.8107 4.11733 59.664 0.32 59.792V50.768C3.22133 50.5973 5.58933 49.7013 7.424 48.08C9.25867 46.4587 10.176 43.728 10.176 39.888V2.896H19.52V40.08ZM31.705 50V0.975998H31.769L57.945 38.096L53.977 37.2L80.089 0.975998H80.217V50H70.937V21.904L71.513 26.704L55.577 49.36H55.449L39.065 26.704L40.665 22.288V50H31.705ZM92.3925 2.896H121.833V11.856H101.673V22.544H119.145V31.504H101.673V50H92.3925V2.896Z" fill="#141F3A"/>
</svg>
